<svg width="52" height="52" viewBox="0 0 52 52" fill="none" xmlns="http://www.w3.org/2000/svg">
<rect width="52" height="52" rx="10" fill="white"/>
<path d="M43 26.7417C43 25.5628 42.9044 24.3776 42.7005 23.2178H26.3425V29.8961H35.71C35.3213 32.0499 34.0723 33.9553 32.2434 35.166V39.4993H37.832C41.1138 36.4788 43 32.0181 43 26.7417Z" fill="#4285F4"/>
<path d="M26.3427 43.6863C31.02 43.6863 34.9645 42.1505 37.8385 39.4996L32.2499 35.1664C30.695 36.2242 28.6877 36.8232 26.349 36.8232C21.8246 36.8232 17.9884 33.7708 16.612 29.667H10.845V34.1341C13.789 39.9903 19.7855 43.6863 26.3427 43.6863Z" fill="#34A853"/>
<path d="M16.6055 29.6667C15.879 27.5128 15.879 25.1805 16.6055 23.0266V18.5596H10.8448C8.38506 23.46 8.38506 29.2334 10.8448 34.1337L16.6055 29.6667Z" fill="#FBBC04"/>
<path d="M26.3427 15.8643C28.8152 15.826 31.2048 16.7564 32.9955 18.4642L37.9468 13.5128C34.8116 10.5688 30.6504 8.95019 26.3427 9.00117C19.7855 9.00117 13.789 12.6972 10.845 18.5598L16.6056 23.0268C17.9757 18.9166 21.8183 15.8643 26.3427 15.8643Z" fill="#EA4335"/>
</svg>
